<svg width="42" height="51" viewBox="0 0 42 51" fill="none" xmlns="http://www.w3.org/2000/svg">
<mask id="mask0_50_1157" style="mask-type:luminance" maskUnits="userSpaceOnUse" x="0" y="0" width="42" height="51">
<path d="M42 0H0V51H42V0Z" fill="white"/>
</mask>
<g mask="url(#mask0_50_1157)">
<path d="M34.1719 3.99999C37.1593 5.63412 39.5039 7.69105 42 9.99999C39.192 12.964 36.8168 15.445 33 17L31.5 15.5625C28.096 13.435 25.0021 12.8565 21 13C17.7586 14.4406 15.2728 16.2727 13 19C11.4316 23.7052 11.451 27.5265 13.1875 32.1875C15.2149 35.3334 16.7721 37.0926 20 39C24.9878 39.6235 27.9954 39.0623 32 36L33 34C36.4593 35.2492 39.1469 36.6753 42 39C40.1925 43.8803 36.243 46.934 31.6328 49.125C25.8123 51.0594 19.3135 50.9584 13.6875 48.4375C7.78848 44.9924 3.58092 39.8023 1.47266 33.3008C-0.00490153 26.1084 -0.00399542 19.0921 3.80859 12.6758C11.2134 2.26044 22.3777 -0.986158 34.1719 3.99999Z" fill="#A1706F"/>
<path d="M33 34C36.4593 35.2492 39.1469 36.6753 42 39C40.438 43.2175 37.5487 45.374 34 48C31.625 48.8125 31.625 48.8125 30 49C26.7773 43.8242 26.7773 43.8242 26 42C27.2562 38.2315 28.6601 37.9204 32 36L33 34Z" fill="#1F96BB"/>
<path d="M11 23C12.1374 27.0165 13.0266 30.8114 13 35C11.1311 37.7957 8.91807 39.3773 6 41C2.42989 37.2676 1.89087 32.905 1 28C2.47773 27.1641 3.95722 26.3314 5.4375 25.5C6.67307 24.8039 6.67307 24.8039 7.93359 24.0938C10 23 10 23 11 23Z" fill="#1BA29C"/>
<path d="M24 2.00001V12L16 15C15.1612 13.7119 14.3291 12.4194 13.5 11.125C13.0359 10.4057 12.5719 9.68642 12.0938 8.94533C11 7.00001 11 7.00001 11 5.00001C15.622 2.78147 18.7682 1.6172 24 2.00001Z" fill="#25A1C2"/>
<path d="M20 40H26C29.2227 45.1758 29.2227 45.1758 30 47L29 50C27.2087 50.0539 25.4169 50.0928 23.625 50.125C22.6273 50.1482 21.6295 50.1714 20.6016 50.1953C18 50 18 50 16 48L20 40Z" fill="#DA5E5F"/>
<path d="M10 6C13.4833 9.01887 14.7916 11.5691 16 16L13 19C8.5811 17.6498 6.65655 15.7388 4 12L10 6Z" fill="#DA5269"/>
<path d="M24 3L31 4V9L27 10V13H24V3Z" fill="#EE9551"/>
<path d="M28 12H37L34 16C29.125 14.25 29.125 14.25 28 12Z" fill="#EB8F47"/>
<path d="M40 9L42 11L35 17L33 16L40 9Z" fill="#2BA2CD"/>
</g>
</svg>
