<svg width="76" height="50" viewBox="0 0 76 50" fill="none" xmlns="http://www.w3.org/2000/svg">
<path d="M34.1719 3C37.1593 4.63414 39.5038 6.69106 42 9C39.1919 11.964 36.8168 14.445 33 16L31.5 14.5625C28.096 12.435 25.0021 11.8565 21 12C17.7586 13.4406 15.2727 15.2727 13 18C11.4316 22.7052 11.451 26.5265 13.1875 31.1875C15.2149 34.3335 16.7721 36.0926 20 38C24.9878 38.6235 27.9954 38.0623 32 35L33 33C36.4592 34.2492 39.1469 35.6753 42 38C40.1925 42.8803 36.243 45.934 31.6328 48.125C25.8122 50.0594 19.3135 49.9584 13.6875 47.4375C7.78847 43.9924 3.58091 38.8023 1.47265 32.3008C-0.00490904 25.1084 -0.00400305 18.0921 3.80859 11.6758C11.2134 1.26046 22.3777 -1.98614 34.1719 3Z" fill="#A1706F"/>
<path d="M42 17.0721H53L59 37.0721C60.933 30.8652 60.933 30.8652 62.8591 24.6563C63.1003 23.8873 63.3414 23.1183 63.5898 22.326C63.836 21.5352 64.0821 20.7444 64.3357 19.9297C65 18.0721 65 18.0721 66 17.0721C67.6861 17 69.375 16.9882 71.0625 17.0096C71.9816 17.0186 72.9007 17.0276 73.8477 17.0369C74.5579 17.0485 75.2682 17.0601 76 17.0721C74.7317 20.9062 73.4599 24.7392 72.1875 28.5721C71.8311 29.6497 71.4746 30.7274 71.1074 31.8377C69.1826 37.6299 67.1916 43.3752 65 49.0721C61.5407 47.8229 58.8531 46.3968 56 44.0721L54 48.0721H52C50.5719 43.98 49.1479 39.8865 47.7275 35.7918C47.2436 34.3985 46.7586 33.0056 46.2725 31.6131C45.5746 29.6134 44.8807 27.6124 44.1875 25.6111C43.7686 24.4067 43.3496 23.2022 42.918 21.9612C42 19.0721 42 19.0721 42 17.0721Z" fill="#4C5390"/>
<path d="M42 17.0721H53L57 33.0721L51 37.0721C48 36.0721 48 36.0721 47.1086 34.4297C46.7552 33.3884 46.7552 33.3884 46.3945 32.326C46.1335 31.5712 45.8725 30.8165 45.6035 30.0388C45.3425 29.2454 45.0814 28.452 44.8125 27.6346C44.5399 26.845 44.2672 26.0555 43.9863 25.242C42 19.4025 42 19.4025 42 17.0721Z" fill="#1E8CB4"/>
<path d="M56 33.0721C57.9522 35.0242 58.8483 36.6041 60 39.0721C60.5543 38.6995 61.1086 38.327 61.6797 37.9431C62.4041 37.4701 63.1286 36.997 63.875 36.5096C64.5943 36.0339 65.3136 35.5582 66.0547 35.0681C66.6966 34.7394 67.3386 34.4107 68 34.0721L70 35.0721L65 49.0721C61.1857 47.5463 59.0345 46.5446 56 44.0721L54 48.0721H52L49 37.0721L56 33.0721Z" fill="#E9924D"/>
<path d="M24 0.999999C30.8548 1.24927 35.9084 3.26202 41 8C41 11 41 11 39.6875 12.3867C38.125 13.5911 36.5625 14.7956 35 16L33.4375 15.1875C30.336 13.6765 27.1774 12.3443 24 11V0.999999Z" fill="#EA9B5C"/>
<path d="M33 33C36.4592 34.2492 39.1469 35.6753 42 38C40.438 42.2175 37.5487 44.374 34 47C31.625 47.8125 31.625 47.8125 30 48C26.7773 42.8242 26.7773 42.8242 26 41C27.2562 37.2315 28.6601 36.9204 32 35L33 33Z" fill="#1F96BB"/>
<path d="M11 22C12.1374 26.0165 13.0266 29.8114 13 34C11.1311 36.7957 8.91807 38.3773 6 40C2.42989 36.2676 1.89087 31.905 1 27C2.47773 26.1641 3.95722 25.3314 5.4375 24.5C6.67307 23.8039 6.67307 23.8039 7.93359 23.0938C10 22 10 22 11 22Z" fill="#1BA29C"/>
<path d="M24 0.999999V11L16 14C15.1612 12.7119 14.3291 11.4194 13.5 10.125C13.0359 9.4057 12.5719 8.6864 12.0938 7.94531C11 6 11 6 11 4C15.622 1.78145 18.7682 0.617189 24 0.999999Z" fill="#25A1C2"/>
<path d="M20 39H26C29.2227 44.1758 29.2227 44.1758 30 46L29 49C27.2087 49.0539 25.4169 49.0928 23.625 49.125C22.6273 49.1482 21.6295 49.1714 20.6016 49.1953C18 49 18 49 16 47L20 39Z" fill="#DA5E5F"/>
<path d="M68 34.0721L70 35.0721L65 49.0721C59.375 46.8221 59.375 46.8221 57 43.0721C60.4336 39.4365 63.7974 36.7109 68 34.0721Z" fill="#DE596B"/>
<path d="M10 5C13.4833 8.01887 14.7916 10.5691 16 15L13 18C8.5811 16.6498 6.65655 14.7388 4 11L10 5Z" fill="#DA5269"/>
<path d="M44 24.0721C47.5523 25.7864 50.7402 27.8495 54 30.0721L56 29.0721L57 33.0721C54.1875 35.1346 54.1875 35.1346 51 37.0721L48 36.0721C46.832 33.3494 46.832 33.3494 45.8125 30.0096C45.4683 28.9048 45.1241 27.8001 44.7695 26.6619C44.5156 25.8072 44.2616 24.9526 44 24.0721Z" fill="#4E5691"/>
<path d="M24 0.999999L31 2V7L27 8V11H24V0.999999Z" fill="#EE9551"/>
<path d="M66 17.0721H76L73 25.0721C71.8275 24.1209 70.6621 23.1609 69.5 22.1971C68.8503 21.6634 68.2006 21.1297 67.5312 20.5799C67.0259 20.0823 66.5206 19.5847 66 19.0721V17.0721Z" fill="#E9944F"/>
<path d="M43 17.0721H53L55 25.0721C52.1494 23.6917 49.4412 22.1791 46.75 20.5096C46.0436 20.0751 45.3372 19.6407 44.6094 19.1931C44.0783 18.8232 43.5472 18.4532 43 18.0721V17.0721Z" fill="#D94860"/>
<path d="M56 44.0721C59.0916 45.458 60.4918 46.5639 63 49.0721H53L56 44.0721Z" fill="#1AB0D7"/>
<path d="M28 11H37L34 15C29.125 13.25 29.125 13.25 28 11Z" fill="#EB8F47"/>
<path d="M40 8L42 10L35 16L33 15L40 8Z" fill="#2BA2CD"/>
</svg>
