<svg width="62" height="61" viewBox="0 0 62 61" fill="none" xmlns="http://www.w3.org/2000/svg">
<g clip-path="url(#clip0_7_1332)">
<path d="M29 2C32.6228 3.2076 32.9116 4.05403 34.6875 7.3125C35.1245 8.09238 35.5615 8.87227 36.0117 9.67578C37 12 37 12 37 16C37.6639 15.5669 38.3277 15.1337 39.0117 14.6875C39.8947 14.1306 40.7777 13.5737 41.6875 13C42.5576 12.4431 43.4277 11.8862 44.3242 11.3125C47.1697 9.91674 48.8789 9.73006 52 10C52.5061 16.0733 51.0416 19.7723 48 25C48.6987 25.2423 49.3973 25.4847 50.1172 25.7344C51.4823 26.2371 51.4823 26.2371 52.875 26.75C53.7799 27.0748 54.6848 27.3997 55.6172 27.7344C58.3205 29.1702 58.9671 30.1743 60 33C56.0871 35.9155 52.6711 38.443 48 40C48.4331 40.7618 48.4331 40.7618 48.875 41.5391C51.2151 45.8781 52.5061 48.9394 52 54C46.2262 53.5189 42.0414 51.8153 37 49L36.3125 51.6875C34.8281 55.4338 32.976 57.3373 30 60C26.1712 55.8767 24.6974 53.7237 24 48C23.1686 48.4331 22.3371 48.8662 21.4805 49.3125C20.3938 49.8694 19.3071 50.4263 18.1875 51C17.1086 51.5569 16.0296 52.1138 14.918 52.6875C12 54 12 54 9 54C8.70658 48.3272 8.9944 45.0093 12 40C11.2781 39.5295 10.5562 39.059 9.8125 38.5742C8.88438 37.9516 7.95625 37.329 7 36.6875C6.07188 36.0726 5.14375 35.4577 4.1875 34.8242C3.46563 34.2222 2.74375 33.6202 2 33V30C8.5 26 8.5 26 13 26C12.7113 25.3477 12.4225 24.6955 12.125 24.0234C10.0793 19.2076 8.4378 15.3409 9 10C13.8596 10.6075 17.7406 12.7276 22 15C22.4215 14.1454 22.843 13.2907 23.2773 12.4102C23.8252 11.3054 24.373 10.2007 24.9375 9.0625C25.4828 7.96035 26.028 6.8582 26.5898 5.72266C28 3 28 3 29 2Z" fill="#36A666"/>
<path d="M29 2C32.6035 3.20116 32.9058 4.01841 34.6875 7.25C35.1245 8.01828 35.5615 8.78656 36.0117 9.57812C37.1292 12.3167 37.3603 14.07 37 17C35.9414 18.7734 35.9414 18.7734 34.5625 20.375C31.7931 23.9345 31.2733 26.5366 31 31H29V33C28.0042 33.147 28.0042 33.147 26.9883 33.2969C21.41 34.2415 18.4045 35.3506 14 39C9.73043 39.1124 6.7382 36.7029 3.35547 34.3516C2.90816 33.9055 2.46086 33.4595 2 33V30C8.5 26 8.5 26 13 26C12.7113 25.3477 12.4225 24.6955 12.125 24.0234C10.0793 19.2076 8.4378 15.3409 9 10C13.8596 10.6075 17.7406 12.7276 22 15C22.4215 14.1454 22.843 13.2907 23.2773 12.4102C23.8252 11.3054 24.373 10.2007 24.9375 9.0625C25.4828 7.96035 26.028 6.8582 26.5898 5.72266C28 3 28 3 29 2Z" fill="#1983AD"/>
<path d="M29 33C28.5126 40.0673 26.988 44.1735 21.6875 49.1875C17.7187 51.8641 13.893 54 9.00002 54C8.57981 48.0121 9.03652 43.7762 13 39C18.0992 33.8895 21.8159 32.2303 29 33Z" fill="#5D469A"/>
<path d="M52 10C52.5021 16.0254 51.1269 19.8513 48 25C46.4065 26.5935 44.4433 26.4255 42.25 26.75C37.3893 27.6514 35.2761 29.2275 32 33H29V31H31L30.625 28C30.6597 23.7062 32.3447 21.193 35.0195 17.9336C39.8112 13.2554 45.1354 9.51055 52 10Z" fill="#0A9E9A"/>
<path d="M29 33C33.3566 33.903 35.3134 35.3432 38 39C39.415 44.9116 38.1394 49.4223 35.1875 54.625C33.6055 57.1641 33.6055 57.1641 32 59C29 59 29 59 26.9375 56.9375C24.6926 53.5339 23.5684 51.0498 23 47C24.75 44.0625 24.75 44.0625 27 41C27.8859 38.3471 28.4317 35.7467 29 33Z" fill="#E09D41"/>
<path d="M27.5312 29.7461C28.2583 30.3668 28.2583 30.3668 29 31V33C28.0042 33.1469 28.0042 33.1469 26.9883 33.2969C21.41 34.2415 18.4045 35.3506 14 39C9.73043 39.1123 6.7382 36.7029 3.35547 34.3516C2.90816 33.9055 2.46086 33.4595 2 33V30C11.4057 24.3927 18.0018 23.6069 27.5312 29.7461Z" fill="#E6B73F"/>
<path d="M32 33C37.1595 32.3551 40.0269 33.766 44.1719 36.5742C48.1316 39.6625 50.5934 43.1942 52 48C52.125 51.3125 52.125 51.3125 52 54C46.958 53.4958 41.755 52.7549 38 49C37.8942 47.4389 37.8154 45.8758 37.75 44.3125C37.2975 38.9666 35.7954 36.6981 32 33Z" fill="#6D4F9E"/>
<path d="M29 2C32.6035 3.20116 32.9058 4.01841 34.6875 7.25C35.343 8.40242 35.343 8.40242 36.0117 9.57812C37.1292 12.3167 37.3603 14.07 37 17C35.9414 18.7734 35.9414 18.7734 34.5625 20.375C31.7931 23.9345 31.2733 26.5366 31 31H29C28.853 29.9868 28.853 29.9868 28.7031 28.9531C27.93 23.3295 27.93 23.3295 24.8125 18.8125C23 17 23 17 22.9375 13.75C24.2218 9.21701 26.3074 5.82528 29 2Z" fill="#C63760"/>
<path d="M29 33H30C30.4811 34.416 30.9598 35.8328 31.4375 37.25C31.8377 38.4334 31.8377 38.4334 32.2461 39.6406C32.9195 41.7482 33.4915 43.8475 34 46C27.25 48 27.25 48 25 48L28 55L30 54L28 52H34L36 48L37 51C35.7851 53.2617 35.7851 53.2617 34.0625 55.6875C33.4966 56.4957 32.9307 57.304 32.3476 58.1367C31.9029 58.7516 31.4582 59.3665 31 60C26.459 57.1772 24.7006 54.2239 23.2344 49.2305C22.8529 45.6003 24.8178 43.772 27 41C27.8934 38.3487 28.4315 35.7475 29 33Z" fill="#DE9D38"/>
<path d="M17 17C18.3378 16.6852 19.672 16.3541 21 16C22.7361 17.7361 22.6561 20.2055 23.0625 22.5625C23.2391 23.5744 23.4157 24.5863 23.5977 25.6289C23.7304 26.4114 23.8632 27.1938 24 28C13.779 25.8656 13.779 25.8656 10.75 22.5C10 20 10 20 11 17C14 16 14 16 17 17Z" fill="#118BB4"/>
<path d="M29 33C28.5888 38.9621 27.7473 42.3159 24 47H23V39H14C19.4747 33.3813 21.3989 32.8774 29 33Z" fill="#0CA18E"/>
<path d="M37 16H38C38.9083 24.3594 38.9083 24.3594 36.7695 28.2227C35.2602 30.0376 33.9033 31.6015 32 33H29V31H31L30.625 28C30.5733 22.9451 33.6736 19.5476 37 16Z" fill="#2E4494"/>
<path d="M57 30V34C52.6727 36.2292 49.716 35.9247 45 35V33L47 32V28C51.7793 26.8681 52.8668 27.2445 57 30Z" fill="#3CAC6A"/>
<path d="M30 33C33.4189 34.4652 35.8142 35.9554 38 39C38.3349 42.0294 38.2334 44.9654 38 48C33.927 45.1379 31.8061 42.6579 30 38C29.8125 35.125 29.8125 35.125 30 33Z" fill="#C53A61"/>
<path d="M13 25C19.3717 25.3413 24.0671 26.7887 29 31V33C22.0709 32.7525 18.0711 30.7474 13 26V25Z" fill="#93AE44"/>
<path d="M23 17C27.875 20.75 27.875 20.75 29 23C29.1342 25.6724 29.0432 28.3225 29 31C25.8388 29.6302 25.0073 29.0109 23 26C22.8047 23.7383 22.8047 23.7383 22.875 21.3125C22.893 20.5043 22.9111 19.696 22.9297 18.8633C22.9529 18.2484 22.9761 17.6335 23 17Z" fill="#4B429B"/>
<path d="M47 26C42.7721 31.3553 38.6277 32.1377 32 33C33.2027 29.3918 34.7465 28.5631 38.0117 26.7852C41.0332 25.592 43.8055 25.7392 47 26Z" fill="#A2AC41"/>
<path d="M32 33C37.8569 32.2679 41.5042 34.5197 46 38V39C41.0025 39.294 38.0158 39.0979 34 36L32 33Z" fill="#4F4294"/>
</g>
<defs>
<clipPath id="clip0_7_1332">
<rect width="62" height="61" fill="white"/>
</clipPath>
</defs>
</svg>
